<svg xmlns="http://www.w3.org/2000/svg" viewBox="0 0 48 48" width="24" height="24" fill="none" stroke="#FFFFFF" stroke-width="2" stroke-linecap="round" stroke-linejoin="round" style="opacity:1;"><path fill="none"    d="M21.6 15.9v12.15a4.05 4.05 0 0 1-4.05 4.05h0a4.05 4.05 0 0 1-4.05-4.05v-1.345m21-1.287a4.05 4.05 0 0 0-4.05-4.05h0a4.05 4.05 0 0 0-4.05 4.05v2.632a4.05 4.05 0 0 0 4.05 4.05h0a4.05 4.05 0 0 0 4.05-4.05m0 4.051V15.899"/><rect width="37" height="37" x="5.5" y="5.5" fill="none"    rx="4" ry="4"/></svg>